<svg width="24" height="24" viewBox="0 0 24 24" fill="none" xmlns="http://www.w3.org/2000/svg">
<g clip-path="url(#clip0_2004_2659)">
<path d="M12.67 2.21701L21.17 6.96701C21.4195 7.09158 21.6294 7.28324 21.776 7.52048C21.9226 7.75772 22.0002 8.03113 22 8.31001V9.75001C22 10.44 21.44 11 20.75 11H20V19H21C21.2652 19 21.5196 19.1054 21.7071 19.2929C21.8946 19.4804 22 19.7348 22 20C22 20.2652 21.8946 20.5196 21.7071 20.7071C21.5196 20.8947 21.2652 21 21 21H3C2.73478 21 2.48043 20.8947 2.29289 20.7071C2.10536 20.5196 2 20.2652 2 20C2 19.7348 2.10536 19.4804 2.29289 19.2929C2.48043 19.1054 2.73478 19 3 19H4V11H3.25C2.56 11 2 10.44 2 9.75001V8.31001C2 7.78801 2.27 7.30801 2.706 7.03601L11.329 2.21701C11.5373 2.11281 11.7671 2.05856 12 2.05856C12.2329 2.05856 12.4617 2.11281 12.67 2.21701ZM18 11H6V19H9V13H11V19H13V13H15V19H18V11ZM12 4.11801L4 8.61801V9.00001H20V8.61801L12 4.11801ZM12 6.00001C12.2652 6.00001 12.5196 6.10537 12.7071 6.29291C12.8946 6.48044 13 6.7348 13 7.00001C13 7.26523 12.8946 7.51958 12.7071 7.70712C12.5196 7.89466 12.2652 8.00001 12 8.00001C11.7348 8.00001 11.4804 7.89466 11.2929 7.70712C11.1054 7.51958 11 7.26523 11 7.00001C11 6.7348 11.1054 6.48044 11.2929 6.29291C11.4804 6.10537 11.7348 6.00001 12 6.00001Z" fill="#141414"/>
</g>
<defs>
<clipPath id="clip0_2004_2659">
<rect width="24" height="24" fill="white"/>
</clipPath>
</defs>
</svg>
