<svg width="24" height="24" viewBox="0 0 24 24" fill="none" xmlns="http://www.w3.org/2000/svg">
  <path
    d="M9 20c.265 0 .52.105.707.293.188.188.293.443.293.707s-.105.52-.293.707A.996.996 0 0 1 9 22a.996.996 0 0 1-.707-.293A.996.996 0 0 1 8 21c0-.265.105-.52.293-.707A.996.996 0 0 1 9 20Zm7 0c.265 0 .52.105.707.293.188.188.293.443.293.707s-.105.52-.293.707A.996.996 0 0 1 16 22a.996.996 0 0 1-.707-.293A.996.996 0 0 1 15 21c0-.265.105-.52.293-.707A.996.996 0 0 1 16 20ZM3.495 2.631l.105.07 1.708 1.28c.291.218.517.511.653.848l.06.171h12.846c.271 0 .54.055.789.162.25.107.475.263.662.46.187.196.332.428.426.682.095.254.137.525.123.796l-.013.148-.457 3.655c-.137 1.1-.636 2.123-1.418 2.909-.782.786-1.803 1.29-2.902 1.432l-.226.023-7.313.61.26 1.124H17.5c.255 0 .5.098.685.273.186.175.297.414.312.669.015.254-.068.505-.232.7-.164.195-.396.321-.649.351l-.117.007H8.796a2.002 2.002 0 0 1-1.18-.385 1.99 1.99 0 0 1-.726-1.007l-.043-.157-2.74-11.87-1.707-1.28a.998.998 0 0 1-.379-1.198.998.998 0 0 1 1.255-.55l.11.054Zm15.372 4.369H6.487l1.595 6.906 7.6-.633c.686-.057 1.331-.348 1.828-.825.497-.476.814-1.109.9-1.792l.457-3.656Z"
    fill="currentColor"
  />
</svg>
